<?xml version="1.0" encoding="utf-8"?>
<!-- Uploaded to SVGRepo https://www.svgrepo.com -->
<svg version="1.1" id="Layer_1" xmlns="http://www.w3.org/2000/svg" xmlns:xlink="http://www.w3.org/1999/xlink" x="0px" y="0px"
	 width="256px" height="160px" viewBox="0 0 256 160" enable-background="new 0 0 256 160" xml:space="preserve">
<path d="M252,113h-5V91c0-7.4-5.52-13-13-13h-24c-0.5,0-1.1-0.27-1.44-0.6l-37.4-36.41c-1.68-1.68-3.72-2.91-6.16-2.99h-27v92h40
	c0.92,0,1.83-1.16,2-2c2.52-14.46,14.83-25.43,30.04-25.43c15.22,0,27.82,11.01,30.34,25.47c0.17,0.93,1.7,1.96,2.62,1.96h2
	c4.79,0,9-4.31,9-9.02v-6.22C254,113.84,253.01,113,252,113z M191,78h-41c-1.01,0-2-0.99-2-2l-0.04-25.85
	c0-1.01,1.03-2.15,2.04-2.15h13c0.5,0,1.52,0.55,1.94,0.89L192,75C193.01,76.26,192.6,78,191,78z M2,2v119.44
	c0,4.48,3.52,8.56,8,8.56h22c0.92,0,1.83-1.16,2-2c2.52-14.46,15.33-24.44,30.54-24.44s27.82,10.02,30.34,24.48
	c0.17,0.93,1.2,1.96,2.12,1.96h33V2H2z M109.95,62.72c-9.19,10.93-21.08,14.45-32.58,14.45c-20.8,0-40.33-11.5-40.33-11.5
	L23.5,75.48c-0.16,0.11-0.26,0.16-0.43,0.16c-0.59,0-1.07-0.69-1.07-1.53c0-0.32,0.11-0.58,0.16-0.84l8.01-14.72l-8.01-14.71
	C22.05,43.58,22,43.31,22,43.05c0-0.9,0.48-1.58,1.07-1.58c0.17,0,0.27,0.05,0.43,0.16l13.54,9.81
	c49.32-28.27,71.56,0.89,71.56,0.89c0.11,0.16,0.16,0.37,0.16,0.58c0,0.32-0.1,0.58-0.26,0.69l-8.49,6.01
	c-0.33,0.31-0.49,0.63-0.49,1.16c0,0.68,0.33,1.21,0.81,1.21h9.35c0.16,0,0.32,0.16,0.32,0.42C110,62.51,110,62.67,109.95,62.72z
	 M93.67,47.59c-2.26,0-4.19,2-4.19,4.37c0,2.43,1.93,4.38,4.19,4.38c2.25,0,4.19-2,4.19-4.38C97.86,49.54,95.92,47.59,93.67,47.59z
	 M210.04,110.48c-12.77,0-23.11,10.33-23.11,23.11c0,12.77,10.34,23.11,23.11,23.11c12.78,0,23.12-10.34,23.12-23.11
	C233.16,120.81,222.82,110.48,210.04,110.48z M210.04,142.44c-4.85,0-8.85-4-8.85-8.85c0-4.85,4-8.85,8.85-8.85
	c4.86,0,8.86,4,8.86,8.85C218.9,138.44,214.9,142.44,210.04,142.44z M64.54,111.46c-12.78,0-23.11,10.34-23.11,23.11
	c0,12.78,10.33,23.12,23.11,23.12c12.77,0,23.11-10.34,23.11-23.12C87.65,121.8,77.31,111.46,64.54,111.46z M64.54,143.43
	c-4.85,0-8.85-4-8.85-8.86c0-4.85,4-8.85,8.85-8.85c4.85,0,8.85,4,8.85,8.85C73.39,139.43,69.39,143.43,64.54,143.43z"/>
</svg>
